<svg width="40" height="20" viewBox="0 0 144 40" fill="none" xmlns="http://www.w3.org/2000/svg">
<path d="M49.6958 19.4655C50.2818 19.7959 51.1188 20.0867 52.2069 20.3422C53.2995 20.5977 54.4141 20.7255 55.5595 20.7255C56.7049 20.7255 57.7049 20.5845 58.6433 20.307C59.5817 20.0294 60.3923 19.6197 61.0619 19.0867C61.7315 18.5536 62.2602 17.9148 62.6434 17.1659C63.0223 16.417 63.2162 15.5711 63.2162 14.6328C63.2162 13.4917 62.8769 12.4741 62.2029 11.5842C61.5289 10.6943 60.4055 9.99822 58.8327 9.49159L55.7489 8.50037C54.5815 8.11709 53.7841 7.7206 53.3523 7.30208C52.9206 6.88357 52.7047 6.36813 52.7047 5.76018C52.7047 4.87028 53.0484 4.22267 53.7356 3.81737C54.4185 3.41207 55.3877 3.20502 56.63 3.20502C58.1763 3.20502 59.5772 3.48696 60.8196 4.04205C61.1985 4.21827 61.4804 4.31078 61.6566 4.31078C61.987 4.31078 62.15 4.0817 62.15 3.62353V2.59706C62.15 2.29309 62.0884 2.05079 61.9606 1.87457C61.8328 1.69395 61.617 1.51773 61.313 1.34151C61.0839 1.21816 60.7799 1.0904 60.3967 0.962641C60.0134 0.834883 59.6037 0.720341 59.1587 0.619016C58.7138 0.513285 58.2468 0.433987 57.749 0.372311C57.2512 0.306229 56.7622 0.275391 56.282 0.275391C55.3172 0.275391 54.4008 0.403149 53.5374 0.654259C52.6739 0.909776 51.9206 1.28424 51.273 1.77765C50.6254 2.27547 50.1055 2.8702 49.7134 3.56626C49.317 4.26673 49.1231 5.06852 49.1231 5.98485C49.1231 7.12587 49.4844 8.17877 50.2113 9.14797C50.9338 10.1128 52.0924 10.8485 53.696 11.3551L56.8547 12.3463C57.9208 12.7032 58.6521 13.082 59.0442 13.4873C59.4363 13.897 59.6345 14.3993 59.6345 15.0116C59.6345 15.8971 59.2601 16.5844 58.5111 17.069C57.7622 17.5492 56.7049 17.7915 55.3304 17.7915C54.4669 17.7915 53.6035 17.7034 52.74 17.5271C51.8765 17.3465 51.0791 17.0954 50.3434 16.765C50.1143 16.6637 49.9293 16.5888 49.7927 16.5403C49.6518 16.4874 49.5196 16.4654 49.3918 16.4654C49.0614 16.4654 48.8984 16.6901 48.8984 17.1483V18.254C48.8984 18.4611 48.9425 18.6637 49.0306 18.8664C49.1187 19.069 49.3434 19.2717 49.6958 19.4743" fill="#262F3E"/>
<path d="M12.8881 8.89736C12.0863 8.78281 11.3197 8.72554 10.584 8.72554C8.35047 8.72554 6.57067 9.28944 5.25344 10.4216C3.9318 11.5494 3.27539 13.0429 3.27539 14.8976C3.27539 16.6465 3.80845 18.0475 4.87457 19.0872C5.94069 20.1269 7.38568 20.6467 9.21834 20.6467C11.7823 20.6467 13.9146 19.6423 15.6151 17.6378C15.8441 18.1224 16.0644 18.5497 16.2803 18.9154C16.4962 19.2854 16.7561 19.6202 17.06 19.9242C17.2627 20.1269 17.4786 20.2326 17.7076 20.2326C17.8883 20.2326 18.0777 20.1665 18.2804 20.0431L19.6505 19.1268C19.928 18.9198 20.069 18.7083 20.069 18.4792C20.069 18.3294 20.0161 18.162 19.9192 17.9858C19.6108 17.4263 19.3773 16.9065 19.2143 16.4263C19.0469 15.9461 18.9676 15.2941 18.9676 14.4835V7.3995C18.9676 5.01175 18.3641 3.22754 17.157 2.04688C15.9455 0.861815 14.0511 0.271484 11.4607 0.271484C10.2668 0.271484 9.13905 0.412459 8.06852 0.690002C7.0024 0.971951 6.09047 1.30236 5.32833 1.68123C5.01995 1.83101 4.8173 1.9852 4.71597 2.1394C4.61465 2.28918 4.56178 2.5447 4.56178 2.89713V3.96325C4.56178 4.42142 4.71597 4.6505 5.01995 4.6505C5.09484 4.6505 5.20938 4.63288 5.36357 4.59323C5.51777 4.55799 5.76888 4.46107 6.12572 4.30688C6.88786 3.9985 7.66763 3.75179 8.46942 3.56236C9.27121 3.37292 10.051 3.276 10.8131 3.276C12.4872 3.276 13.6678 3.61082 14.3551 4.28485C15.0424 4.95888 15.386 6.11752 15.386 7.76956V9.36874C14.5225 9.16609 13.6899 9.00749 12.8925 8.89295M15.386 12.7213C15.386 13.457 15.3155 14.087 15.1789 14.6068C15.0379 15.1267 14.7912 15.5936 14.4388 15.9989C13.8529 16.6598 13.17 17.1223 12.3815 17.3867C11.5929 17.6554 10.844 17.7876 10.1347 17.7876C9.14345 17.7876 8.38131 17.5276 7.85265 17.0078C7.31959 16.4879 7.05086 15.717 7.05086 14.7037C7.05086 13.6156 7.4077 12.7742 8.11698 12.1926C8.82626 11.6067 9.90559 11.3159 11.3506 11.3159C12.0114 11.3159 12.6898 11.36 13.3903 11.4481C14.0864 11.5362 14.7516 11.6552 15.3904 11.8094V12.7257L15.386 12.7213Z" fill="#262F3E"/>
<path d="M26.3115 19.0828C26.4392 19.5145 26.589 19.8009 26.7696 19.9375C26.9502 20.0784 27.2278 20.1445 27.6067 20.1445H29.4702C29.8755 20.1445 30.1662 20.0696 30.3468 19.9198C30.5231 19.7657 30.664 19.4749 30.7654 19.0432L34.1179 5.02943L37.5057 19.0432C37.607 19.4749 37.748 19.7657 37.9242 19.9198C38.1004 20.0696 38.3912 20.1445 38.8009 20.1445H40.6644C41.0477 20.1445 41.3252 20.074 41.5014 19.9375C41.6821 19.8009 41.8319 19.5145 41.9596 19.0828L47.2153 2.24959C47.2946 2.02491 47.3431 1.84429 47.3695 1.71653C47.3915 1.58877 47.4048 1.47863 47.4048 1.3729C47.4048 1.02047 47.2285 0.839844 46.8717 0.839844H44.854C44.4443 0.839844 44.1623 0.910331 43.9993 1.0469C43.8319 1.18787 43.6866 1.47423 43.5632 1.90156L39.7921 16.488L36.3647 1.90156C36.2634 1.47423 36.1224 1.18347 35.9462 1.0469C35.77 0.910331 35.4792 0.839844 35.0739 0.839844H33.3205C32.9152 0.839844 32.6201 0.910331 32.4438 1.0469C32.2632 1.18787 32.1267 1.47423 32.0253 1.90156L28.6331 16.2986L24.981 1.90596C24.8533 1.47863 24.7079 1.18787 24.5449 1.05131C24.3775 0.914736 24.0955 0.844249 23.6858 0.844249H21.5536C21.1967 0.844249 21.0205 1.02487 21.0205 1.37731C21.0205 1.5315 21.0822 1.82226 21.2099 2.25399L26.3115 19.0872V19.0828Z" fill="#262F3E"/>
<path d="M58.639 29.6296C50.6079 33.0395 41.8763 34.6871 33.9332 34.6871C22.1619 34.6871 10.7606 31.4579 1.54877 26.0921C0.738164 25.6251 0.143429 26.4533 0.813057 27.0569C9.35523 34.7708 20.6464 39.4009 33.1799 39.4009C42.123 39.4009 52.5154 36.5903 59.6787 31.3037C60.8638 30.427 59.8505 29.1142 58.639 29.6296Z" fill="#F8981D"/>
<path d="M54.1147 26.6511C53.4848 27.0916 53.5949 27.704 54.2954 27.6203C56.6038 27.3427 61.745 26.7259 62.6613 27.8978C63.5776 29.0741 61.6392 33.9068 60.7758 36.0699C60.5159 36.7219 61.0798 36.9907 61.6701 36.4928C65.5116 33.2769 66.5073 26.5409 65.7187 25.5673C64.9389 24.6025 58.2162 23.7743 54.1147 26.6511Z" fill="#F8981D"/>
<path d="M82.9347 15.6419C82.7629 15.6419 82.6748 15.5538 82.6748 15.382V3.62824C82.6748 3.45643 82.7629 3.36832 82.9347 3.36832H83.2651C83.4502 3.36832 83.5471 3.45643 83.5603 3.62824L83.6308 4.33752C84.1594 3.91019 84.6749 3.5974 85.1815 3.40356C85.6837 3.20972 86.2036 3.1084 86.7322 3.1084C87.8512 3.1084 88.7323 3.50929 89.3799 4.31109C90.0231 5.11728 90.3447 6.21424 90.3447 7.61077C90.3447 9.0073 90.0055 10.1615 89.3226 11.003C88.6398 11.8444 87.7279 12.2629 86.5692 12.2629C85.5075 12.2629 84.5383 11.8708 83.6616 11.0867V15.3776C83.6616 15.5494 83.5735 15.6375 83.4017 15.6375H82.9347V15.6419ZM86.4679 11.3686C87.4107 11.3686 88.1244 11.0602 88.6045 10.4391C89.0847 9.82231 89.327 8.90157 89.327 7.67685C89.327 5.23183 88.3975 4.00711 86.5384 4.00711C85.5824 4.00711 84.622 4.37717 83.666 5.11728V10.188C84.1374 10.5933 84.6 10.8884 85.0493 11.0823C85.4987 11.2717 85.9745 11.3686 86.4723 11.3686" fill="#262F3E"/>
<path d="M94.6358 12.2678C93.8384 12.2678 93.2085 12.0431 92.7415 11.585C92.2745 11.1268 92.041 10.5188 92.041 9.7567C92.041 8.91526 92.3318 8.25004 92.9045 7.76544C93.4816 7.28084 94.2658 7.03854 95.2614 7.03854C96.0324 7.03854 96.8606 7.1707 97.7373 7.43943V5.98564C97.7373 5.28076 97.5699 4.77854 97.235 4.47016C96.9002 4.16618 96.3451 4.01199 95.5742 4.01199C94.8032 4.01199 93.9442 4.15737 93.0455 4.44373C92.9397 4.47897 92.8516 4.49659 92.7855 4.49659C92.671 4.49659 92.6137 4.4217 92.6137 4.27191V3.99437C92.6137 3.90186 92.6313 3.83137 92.6666 3.7785C92.7018 3.72564 92.7635 3.68158 92.8428 3.64634C93.7547 3.2895 94.7151 3.11328 95.7328 3.11328C96.7504 3.11328 97.4994 3.32474 97.9884 3.75207C98.4818 4.1794 98.7241 4.8226 98.7241 5.69047V11.8185C98.7241 11.9947 98.636 12.0784 98.4642 12.0784H98.0985C97.9267 12.0784 97.8342 11.9903 97.821 11.8185L97.7549 11.0739C96.7593 11.8713 95.724 12.2678 94.6402 12.2678M94.7768 11.3691C95.2129 11.3691 95.6887 11.281 96.1998 11.1004C96.7064 10.9241 97.2218 10.673 97.7417 10.3514V8.18396C96.9663 7.9769 96.2174 7.87557 95.4905 7.87557C93.8737 7.87557 93.0675 8.49674 93.0675 9.74349C93.0675 10.2765 93.2129 10.6774 93.4992 10.9594C93.79 11.2325 94.2173 11.3735 94.7812 11.3735" fill="#262F3E"/>
<path d="M101.65 12.0735C101.478 12.0735 101.39 11.9854 101.39 11.8136V3.62826C101.39 3.45645 101.478 3.36834 101.65 3.36834H101.98C102.165 3.36834 102.262 3.45645 102.275 3.62826L102.363 4.6327C102.799 4.1481 103.231 3.80448 103.65 3.60183C104.073 3.39918 104.548 3.29785 105.077 3.29785C105.262 3.29785 105.412 3.30226 105.526 3.31547C105.698 3.32428 105.786 3.4212 105.786 3.59302V4.02475C105.786 4.07321 105.769 4.11727 105.733 4.15251C105.698 4.19216 105.65 4.21419 105.597 4.21419C105.504 4.21419 105.416 4.21419 105.337 4.20537C105.253 4.20097 105.134 4.19656 104.971 4.19656C104.443 4.19656 103.971 4.29789 103.562 4.49173C103.152 4.68557 102.755 5.00717 102.376 5.44331V11.8136C102.376 11.9898 102.288 12.0735 102.117 12.0735H101.65Z" fill="#262F3E"/>
<path d="M110.372 12.1795C109.69 12.1795 109.174 11.9944 108.817 11.6332C108.456 11.2719 108.28 10.7433 108.28 10.0516V4.23642H106.914C106.738 4.23642 106.654 4.14832 106.654 3.9765V3.80469C106.654 3.71218 106.668 3.64169 106.707 3.59763C106.742 3.54917 106.813 3.52274 106.914 3.50953L108.315 3.39058L108.439 1.10855C108.447 1.01604 108.474 0.949958 108.513 0.910309C108.553 0.87066 108.615 0.848633 108.698 0.848633H109.011C109.187 0.848633 109.271 0.936742 109.271 1.10855V3.37736H111.782C111.954 3.37736 112.042 3.46547 112.042 3.63728V3.98531C112.042 4.16153 111.954 4.24524 111.782 4.24524H109.271V10.012C109.271 10.4834 109.372 10.8182 109.575 11.012C109.782 11.2103 110.113 11.3072 110.588 11.3072C110.923 11.3072 111.218 11.2807 111.474 11.2191C111.597 11.197 111.699 11.175 111.778 11.1618C111.853 11.1442 111.906 11.1354 111.941 11.1354C112.069 11.1354 112.135 11.2058 112.135 11.3424V11.6023C112.135 11.8006 112.069 11.9195 111.941 11.9636C111.491 12.1178 110.976 12.1883 110.386 12.1883" fill="#262F3E"/>
<path d="M114.214 12.0735C114.042 12.0735 113.954 11.9854 113.954 11.8136V3.62824C113.954 3.45643 114.042 3.36832 114.214 3.36832H114.562C114.747 3.36832 114.844 3.45643 114.857 3.62824L114.928 4.37276C115.492 3.96746 116.086 3.65467 116.712 3.43881C117.333 3.22294 117.941 3.1084 118.527 3.1084C119.368 3.1084 120.012 3.33308 120.457 3.77803C120.901 4.22298 121.122 4.87939 121.122 5.74286V11.818C121.122 11.9942 121.034 12.0779 120.862 12.0779H120.395C120.219 12.0779 120.131 11.9898 120.131 11.818V6.16138C120.131 5.41245 119.99 4.86617 119.703 4.52255C119.412 4.18333 118.954 4.01152 118.315 4.01152C117.161 4.01152 116.038 4.38157 114.941 5.11728V11.8136C114.941 11.9898 114.853 12.0735 114.681 12.0735H114.214Z" fill="#262F3E"/>
<path d="M127.475 12.3334C126.1 12.3334 125.069 11.9457 124.378 11.166C123.686 10.3862 123.338 9.22757 123.338 7.69447C123.338 6.24067 123.686 5.11288 124.382 4.31109C125.082 3.50929 126.056 3.1084 127.316 3.1084C128.365 3.1084 129.171 3.41237 129.73 4.00711C130.285 4.61066 130.567 5.46972 130.567 6.5887C130.567 7.05128 130.541 7.39931 130.497 7.62839C130.462 7.8002 130.365 7.88831 130.202 7.88831H124.334C124.342 9.09981 124.611 9.99412 125.127 10.5712C125.646 11.1483 126.448 11.4347 127.536 11.4347C128.365 11.4347 129.157 11.2937 129.906 11.003C130.056 10.9457 130.162 10.9149 130.219 10.9149C130.268 10.9149 130.307 10.9325 130.338 10.9721C130.373 11.0118 130.391 11.0646 130.391 11.1219V11.3818C130.391 11.5669 130.325 11.6902 130.197 11.7475C129.365 12.1396 128.453 12.3334 127.461 12.3334M129.589 7.09093C129.598 6.92792 129.607 6.73849 129.607 6.51822C129.607 5.68999 129.4 5.06001 128.999 4.63268C128.594 4.20976 127.999 3.99389 127.215 3.99389C125.391 3.99389 124.426 5.02477 124.325 7.09093H129.585H129.589Z" fill="#262F3E"/>
<path d="M133.012 12.0735C132.84 12.0735 132.752 11.9854 132.752 11.8136V3.62826C132.752 3.45645 132.84 3.36834 133.012 3.36834H133.342C133.527 3.36834 133.624 3.45645 133.637 3.62826L133.726 4.6327C134.162 4.1481 134.593 3.80448 135.012 3.60183C135.435 3.39918 135.911 3.29785 136.439 3.29785C136.624 3.29785 136.774 3.30226 136.889 3.31547C137.06 3.32428 137.149 3.4212 137.149 3.59302V4.02475C137.149 4.07321 137.131 4.11727 137.096 4.15251C137.06 4.19216 137.012 4.21419 136.959 4.21419C136.867 4.21419 136.779 4.21419 136.699 4.20537C136.616 4.20097 136.497 4.19656 136.334 4.19656C135.805 4.19656 135.334 4.29789 134.924 4.49173C134.514 4.68557 134.118 5.00717 133.739 5.44331V11.8136C133.739 11.9898 133.651 12.0735 133.479 12.0735H133.012Z" fill="#262F3E"/>
<path d="M82.9347 31.303C82.7629 31.303 82.6748 31.2149 82.6748 31.0431V22.8577C82.6748 22.6859 82.7629 22.5978 82.9347 22.5978H83.2828C83.4678 22.5978 83.5647 22.6859 83.5779 22.8577L83.6484 23.6023C84.2123 23.197 84.807 22.8842 85.4282 22.6683C86.0494 22.4524 86.6573 22.3379 87.2433 22.3379C88.0847 22.3379 88.7279 22.5626 89.1728 23.0075C89.6178 23.4525 89.8381 24.1089 89.8381 24.9724V31.0475C89.8381 31.2237 89.75 31.3074 89.5781 31.3074H89.1112C88.935 31.3074 88.8468 31.2193 88.8468 31.0475V25.3909C88.8468 24.6419 88.7059 24.0957 88.4151 23.752C88.1288 23.4128 87.6662 23.241 87.0318 23.241C85.8776 23.241 84.7542 23.6111 83.6572 24.3468V31.0431C83.6572 31.2193 83.5691 31.303 83.3973 31.303H82.9303H82.9347Z" fill="#262F3E"/>
<path d="M96.1953 31.5629C94.8208 31.5629 93.7899 31.1752 93.0983 30.3955C92.4066 29.6157 92.0586 28.4571 92.0586 26.924C92.0586 25.4702 92.4066 24.3424 93.1027 23.5406C93.8032 22.7388 94.7768 22.3379 96.0367 22.3379C97.0852 22.3379 97.8914 22.6419 98.4509 23.2366C99.006 23.8401 99.2879 24.6992 99.2879 25.8182C99.2879 26.2808 99.2615 26.6288 99.2175 26.8579C99.1822 27.0297 99.0853 27.1178 98.9223 27.1178H93.0542C93.063 28.3293 93.3274 29.2236 93.8472 29.8007C94.367 30.3778 95.1688 30.6642 96.2526 30.6642C97.0852 30.6642 97.8738 30.5232 98.6227 30.2325C98.7725 30.1752 98.8782 30.1443 98.9355 30.1443C98.984 30.1443 99.0236 30.162 99.0545 30.2016C99.0897 30.2413 99.1073 30.2941 99.1073 30.3514V30.6113C99.1073 30.7964 99.0412 30.9197 98.9135 30.977C98.0808 31.3691 97.1689 31.5629 96.1777 31.5629M98.3055 26.3204C98.3143 26.1574 98.3231 25.968 98.3231 25.7477C98.3231 24.9195 98.1161 24.2895 97.7152 23.8622C97.3099 23.4393 96.7152 23.2234 95.931 23.2234C94.1071 23.2234 93.1423 24.2543 93.041 26.3204H98.3011H98.3055Z" fill="#262F3E"/>
<path d="M104.156 31.4089C103.473 31.4089 102.957 31.2239 102.601 30.8627C102.239 30.5014 102.063 29.9728 102.063 29.2811V23.4659H100.697C100.526 23.4659 100.438 23.3778 100.438 23.206V23.0342C100.438 22.9417 100.451 22.8712 100.49 22.8271C100.526 22.7787 100.596 22.7522 100.697 22.739L102.098 22.6201L102.222 20.338C102.231 20.2455 102.257 20.1795 102.297 20.1398C102.336 20.1002 102.398 20.0781 102.482 20.0781H102.794C102.971 20.0781 103.054 20.1662 103.054 20.338V22.6069H105.565C105.737 22.6069 105.825 22.695 105.825 22.8668V23.2148C105.825 23.391 105.737 23.4747 105.565 23.4747H103.054V29.2415C103.054 29.7128 103.156 30.0477 103.358 30.2415C103.565 30.4397 103.896 30.5367 104.376 30.5367C104.706 30.5367 105.002 30.5102 105.257 30.4486C105.38 30.4265 105.482 30.4045 105.561 30.3913C105.636 30.3737 105.689 30.3649 105.724 30.3649C105.852 30.3649 105.918 30.4353 105.918 30.5719V30.8318C105.918 31.0301 105.852 31.149 105.724 31.1931C105.275 31.3473 104.759 31.4178 104.169 31.4178" fill="#262F3E"/>
<path d="M109.799 31.3033C109.636 31.3033 109.526 31.224 109.468 31.061L106.715 23.0123C106.667 22.8845 106.645 22.8008 106.645 22.7523C106.645 22.651 106.715 22.5982 106.852 22.5982H107.407C107.556 22.5982 107.653 22.673 107.702 22.8228L110.072 30.1623L112.169 22.8361C112.226 22.6775 112.336 22.5938 112.495 22.5938H113.134C113.297 22.5938 113.407 22.6775 113.46 22.8361L115.539 30.2108L117.962 22.8228C118.006 22.673 118.103 22.5982 118.257 22.5982H118.777C118.914 22.5982 118.984 22.651 118.984 22.7523C118.984 22.8008 118.962 22.8845 118.914 23.0123L116.094 31.061C116.033 31.224 115.927 31.3033 115.764 31.3033H115.196C115.033 31.3033 114.922 31.224 114.865 31.061L112.773 23.7039L110.698 31.061C110.64 31.224 110.53 31.3033 110.372 31.3033H109.799Z" fill="#262F3E"/>
<path d="M124.166 31.5629C122.897 31.5629 121.91 31.1576 121.205 30.3426C120.5 29.5276 120.152 28.3954 120.152 26.9416C120.152 25.4878 120.5 24.3556 121.205 23.5494C121.91 22.7388 122.897 22.3379 124.166 22.3379C125.434 22.3379 126.421 22.7432 127.126 23.5494C127.831 24.3556 128.179 25.4878 128.179 26.9416C128.179 28.3954 127.831 29.5276 127.126 30.3426C126.421 31.1576 125.434 31.5629 124.166 31.5629ZM124.166 30.6642C126.161 30.6642 127.161 29.4219 127.161 26.9416C127.161 24.4613 126.161 23.2366 124.166 23.2366C122.17 23.2366 121.17 24.4745 121.17 26.9416C121.17 29.4086 122.17 30.6642 124.166 30.6642Z" fill="#262F3E"/>
<path d="M130.69 31.303C130.518 31.303 130.43 31.2149 130.43 31.0431V22.8578C130.43 22.6859 130.518 22.5978 130.69 22.5978H131.02C131.205 22.5978 131.302 22.6859 131.315 22.8578L131.403 23.8622C131.839 23.3776 132.271 23.034 132.694 22.8313C133.117 22.6287 133.593 22.5273 134.121 22.5273C134.306 22.5273 134.456 22.5317 134.571 22.545C134.743 22.5538 134.831 22.6507 134.831 22.8225V23.2542C134.831 23.3027 134.813 23.3468 134.778 23.382C134.743 23.4216 134.694 23.4437 134.641 23.4437C134.549 23.4437 134.461 23.4437 134.381 23.4349C134.298 23.4305 134.179 23.4261 134.016 23.4261C133.487 23.4261 133.016 23.5274 132.606 23.7212C132.196 23.9151 131.8 24.2367 131.421 24.6728V31.0431C131.421 31.2193 131.333 31.303 131.161 31.303H130.694H130.69Z" fill="#262F3E"/>
<path d="M136.647 31.3037C136.475 31.3037 136.387 31.2156 136.387 31.0438V18.757C136.387 18.5808 136.475 18.4971 136.647 18.4971H137.114C137.285 18.4971 137.374 18.5852 137.374 18.757V26.4797L141.528 22.7748C141.642 22.6602 141.788 22.5985 141.96 22.5985H142.581C142.717 22.5985 142.788 22.6514 142.788 22.7527C142.788 22.8144 142.722 22.8981 142.594 23.0127L138.404 26.7176L142.938 30.9072C143.043 30.9997 143.092 31.0746 143.092 31.1319C143.092 31.2464 143.026 31.3037 142.885 31.3037H142.14C141.999 31.3037 141.876 31.2508 141.757 31.1495L137.36 27.048V31.0438C137.36 31.22 137.272 31.3037 137.1 31.3037H136.633H136.647Z" fill="#262F3E"/>
</svg>
