<svg width="155" height="32" viewBox="0 0 155 32" fill="none" xmlns="http://www.w3.org/2000/svg">
<g clip-path="url(#clip0_1054_49930)">
<path d="M90.2024 27.2904C90.9827 27.2904 91.4526 27.4958 91.9047 27.8712L91.3041 28.579C90.97 28.3068 90.6724 28.1492 90.1713 28.1492C89.4779 28.1492 88.9271 28.7482 88.9271 29.4691V29.4814C88.9271 30.2561 89.472 30.8253 90.2388 30.8253C90.5578 30.8348 90.8717 30.7459 91.1363 30.5712V29.9657H90.1772V29.1613H92.0591V31.001C91.5453 31.4361 90.888 31.6746 90.2084 31.6725C88.8595 31.6732 87.9308 30.7447 87.9308 29.4938V29.4814C87.9308 28.277 88.89 27.2904 90.2024 27.2904ZM55.6702 27.2904C56.4868 27.2904 56.976 27.5568 57.3776 27.9438L56.7711 28.6277C56.437 28.3307 56.0963 28.1492 55.6635 28.1492C54.933 28.1492 54.4074 28.7424 54.4074 29.4691V29.4814C54.4074 30.2074 54.9211 30.8129 55.6635 30.8129C56.1586 30.8129 56.4623 30.6191 56.8023 30.3163L57.4088 30.9153C56.9634 31.3814 56.4682 31.6718 55.6323 31.6718C54.3584 31.6732 53.4112 30.7106 53.4112 29.4938V29.4814C53.4112 28.277 54.3399 27.2904 55.6702 27.2904ZM72.9627 27.2904C74.2997 27.2904 75.2588 28.2647 75.2588 29.4684V29.4807C75.2588 30.6851 74.2869 31.6718 72.95 31.6718C71.6131 31.6718 70.6539 30.6982 70.6539 29.4938V29.4814C70.6539 28.277 71.6257 27.2904 72.9627 27.2904ZM83.9785 27.2904C85.3155 27.2904 86.2746 28.2647 86.2746 29.4684V29.4807C86.2746 30.6851 85.3028 31.6718 83.9659 31.6718C82.6289 31.6718 81.6698 30.6982 81.6698 29.4938V29.4814C81.6698 28.277 82.6415 27.2904 83.9785 27.2904ZM103.745 27.3027C104.33 27.2934 104.899 27.484 105.355 27.8414L104.86 28.5435C104.476 28.2836 104.099 28.126 103.734 28.126C103.368 28.126 103.177 28.2894 103.177 28.4955V28.5079C103.177 28.7867 103.362 28.8774 104.111 29.0647C104.99 29.2883 105.485 29.5976 105.485 30.3359V30.3483C105.485 31.1897 104.829 31.6616 103.895 31.6616C103.217 31.6641 102.562 31.4225 102.055 30.9828L102.618 30.3236C103.008 30.6387 103.417 30.8376 103.912 30.8376C104.301 30.8376 104.537 30.6866 104.537 30.4383V30.426C104.537 30.19 104.388 30.0688 103.664 29.8873C102.791 29.6695 102.229 29.4335 102.229 28.5921V28.5798C102.229 27.8109 102.86 27.3027 103.745 27.3027ZM46.77 27.3637V28.2233H45.4524V31.6006H44.4984V28.2226H43.1807V27.3637H46.77ZM60.1021 27.3637V29.04H61.86V27.3637H62.8131V31.6006H61.86V29.8996H60.1021V31.6006H59.1489V27.3637H60.1021ZM65.7982 27.3637L67.8278 29.9722V27.3637H68.7683V31.6006H67.9569L65.859 28.9072V31.6006H64.9192V27.3637H65.7982ZM78.0886 27.3637V30.7534H80.2489V31.6006H77.1355V27.3637H78.0886ZM95.0411 27.3637V31.6006H94.0879V27.3637H95.0411ZM51.726 27.3637V28.1928H49.4069V29.0524H51.4491V29.8815H49.4069V30.7708H51.7587V31.5999H48.4596V27.3637H51.726ZM100.422 27.3637V28.1928H98.1011V29.0524H100.143V29.8815H98.1011V30.7708H100.453V31.5999H97.1539L97.1553 27.3637H100.422ZM72.9508 28.15C72.1839 28.15 71.6509 28.7431 71.6509 29.4698V29.4822C71.6509 30.2082 72.1958 30.8136 72.9627 30.8136C73.7295 30.8136 74.2625 30.2205 74.2625 29.4938V29.4814C74.2625 28.7554 73.7176 28.15 72.9508 28.15ZM83.9666 28.15C83.1998 28.15 82.6668 28.7431 82.6668 29.4698V29.4822C82.6668 30.2082 83.2117 30.8136 83.9785 30.8136C84.7454 30.8136 85.2784 30.2205 85.2784 29.4938V29.4814C85.2784 28.7554 84.7335 28.15 83.9666 28.15ZM33.9235 6.956C38.0399 6.95527 41.0561 9.96016 41.0561 14.0693L41.0569 14.0707C41.0569 18.2089 38.0399 21.2124 33.9235 21.2124C29.8354 21.2124 26.8184 18.2067 26.8184 14.0707C26.8184 9.96234 29.8354 6.956 33.9235 6.956ZM99.2369 6.95672C103.468 6.95672 105.947 9.68646 105.947 13.9328C105.947 14.457 105.891 14.8976 105.863 14.9528H95.8265C95.9112 16.9929 97.5466 18.4543 99.5762 18.4543C101.55 18.4543 102.565 17.4343 103.016 16.1108L105.779 16.966C105.047 19.3095 102.875 21.2124 99.5762 21.2124C95.8548 21.2124 92.5557 18.5654 92.5557 14.0156C92.5557 9.76923 95.7701 6.95672 99.2369 6.95672ZM10.6165 0.833675C15.6912 0.833675 18.7082 3.75654 19.6109 7.17525L16.4247 8.22286C15.8308 5.85176 13.9749 3.94892 10.6165 3.94892C7.31737 3.94892 4.01833 6.29244 4.01833 11.0354C4.01833 15.6091 7.23274 18.039 10.6439 18.039C13.9994 18.039 15.9147 15.9431 16.5932 13.7375L19.6948 14.7299C18.7928 18.0398 15.7476 21.2102 10.6469 21.2102C5.25956 21.2102 0.550781 17.4052 0.550781 11.0361C0.550781 4.66621 5.42881 0.833675 10.6165 0.833675ZM113.162 6.95309C117.394 6.95309 118.999 9.2966 118.999 11.9712V18.6438C118.999 19.8569 119.14 20.657 119.168 20.7949H116.124C116.096 20.7121 115.983 20.1604 115.983 19.0852C115.334 20.1052 113.979 21.208 111.752 21.208C108.876 21.208 107.099 19.2783 107.099 17.1548C107.102 14.7583 108.906 13.4348 111.247 13.103L114.771 12.5788C115.561 12.4685 115.786 12.0822 115.786 11.614C115.786 10.4836 114.997 9.57321 113.192 9.57321C111.472 9.57321 110.513 10.6484 110.371 11.9995L107.382 11.3374C107.636 9.02145 109.779 6.95309 113.162 6.95309ZM46.1316 7.36764V15.2548C46.1316 16.9094 46.9207 18.3156 48.8947 18.3156C50.784 18.3156 51.7706 17.0749 51.7706 15.31V7.36764H55.0399V18.3425C55.0398 19.1624 55.0869 19.9816 55.181 20.7964H52.0497C51.9742 20.3035 51.9365 19.8057 51.9369 19.3073C51.2606 20.5212 49.6534 21.1826 48.0462 21.1826V21.1855C44.7753 21.1855 42.8586 18.8137 42.8586 15.8364V7.36764H46.1316ZM70.7408 0.833675V18.3425C70.741 19.1624 70.7881 19.9816 70.8818 20.7964H67.7521C67.6665 20.2209 67.6195 19.6405 67.611 19.0591C66.9622 20.1894 65.525 21.1267 63.5793 21.1267C59.6321 21.1267 56.9812 18.0935 56.9812 14.0402C56.9812 10.1801 59.6596 7.00899 63.5221 7.00899C65.9184 7.00899 67.1307 8.08419 67.5538 8.93869V0.833675H70.7408ZM131.981 3.25995L131.984 7.36764H134.832V10.2077H131.984V16.4426C131.984 17.6281 132.52 18.1247 133.732 18.1247C134.111 18.1179 134.488 18.081 134.86 18.0143V20.6613C134.662 20.7441 134.043 20.9648 132.855 20.9648C130.318 20.9648 128.739 19.4758 128.739 16.9667V10.2085H126.202V7.36764H126.906C128.372 7.36764 129.02 6.45724 129.02 5.27169V3.25995H131.981ZM24.8475 0.833675V20.7985H21.5766V0.833675H24.8475ZM77.3953 0.833675V9.32782H86.7839V0.833675H90.1987V20.7985H86.7839V12.4423H77.3953V20.7985H74.0124V0.833675H77.3953ZM124.944 0.833675V20.7985H121.673V0.833675H124.944ZM140.085 0.833675V8.66426C141.015 7.47871 142.566 6.98213 144.003 6.98213C147.387 6.98213 149.022 9.35396 149.022 12.3037V20.7985H145.751V12.8554C145.751 11.2009 144.989 9.87885 142.93 9.87885C141.125 9.87885 140.139 11.2023 140.082 12.9121L140.085 20.7985H136.814V0.833675H140.085ZM115.786 14.6203L112.202 15.1445C111.187 15.31 110.369 15.861 110.369 16.9646C110.369 17.8742 111.074 18.7019 112.373 18.7019C114.206 18.7011 115.786 17.8466 115.786 15.2265V14.6203ZM33.9235 9.85199C31.9192 9.85199 30.0893 11.2858 30.0893 14.0707C30.0893 16.8557 31.9221 18.3447 33.9235 18.3447C35.9531 18.3425 37.7578 16.8782 37.7578 14.0693C37.7578 11.2858 35.9531 9.85199 33.9235 9.85199ZM63.9772 9.84981C61.8347 9.84981 60.2557 11.4768 60.2557 14.041C60.2557 16.6052 61.7211 18.3149 63.9482 18.3149C66.0914 18.3149 67.5858 16.5776 67.5858 14.0134C67.5858 11.4492 66.1196 9.84981 63.9772 9.84981ZM99.2659 9.63347C97.2073 9.63347 96.0233 11.1776 95.9104 12.61H102.65C102.593 11.0383 101.522 9.63347 99.2659 9.63347ZM151.502 0.688477C152.628 0.709352 153.53 1.60828 153.53 2.71001C153.53 3.81174 152.628 4.71067 151.502 4.73155C150.371 4.73155 149.466 3.81752 149.466 2.70675C149.462 2.175 149.674 1.66358 150.056 1.28506C150.438 0.906535 150.958 0.691931 151.502 0.688477ZM151.502 1.08777C150.607 1.08777 149.901 1.78836 149.901 2.70747C149.901 3.62658 150.607 4.33225 151.502 4.33225C152.397 4.33225 153.102 3.62658 153.102 2.70747C153.102 1.78836 152.397 1.08777 151.502 1.08777ZM151.597 1.59089C152.034 1.59089 152.358 1.89218 152.358 2.28059C152.359 2.58057 152.159 2.84581 151.866 2.93398L152.369 3.79284H151.882L151.412 2.97246H151.244V3.79066H150.819V1.59089H151.597ZM151.535 1.95171H151.244V2.60511L151.535 2.60874C151.788 2.60874 151.927 2.48822 151.927 2.28567C151.927 2.07223 151.787 1.95171 151.535 1.95171Z" fill="#8B90C1"/>
</g>
<defs>
<clipPath id="clip0_1054_49930">
<rect width="154" height="31" fill="white" transform="translate(0.349609 0.672852)"/>
</clipPath>
</defs>
</svg>
