<svg width="181" height="44" viewBox="0 0 181 44" fill="none" xmlns="http://www.w3.org/2000/svg">
<path d="M37.4474 9.14258C40.098 11.3339 41.8049 14.1572 42.9055 17.3708C43.1211 18.0002 43.4191 18.4761 43.9563 18.9026C48.3693 22.4072 50.1599 28.1553 48.5617 33.5316C46.9569 38.9303 42.41 42.7508 36.7222 43.2564C32.7593 43.6087 28.7751 43.4527 24.7997 43.3155C24.7952 40.5031 24.7912 37.6908 24.7871 34.8782C25.8135 34.8639 26.8399 34.8406 27.8663 34.8368C30.4773 34.8273 33.0903 34.8936 35.6982 34.8027C38.1574 34.7171 40.2251 32.7642 40.5273 30.4331C40.866 27.8212 39.4648 25.5044 37.0313 24.6932C36.5154 24.5213 35.9723 24.4313 35.4584 24.3075C34.744 18.8273 34.4029 18.0495 31.425 15.0761L37.4474 9.14258Z" fill="#4587F2"/>
<path d="M6.01659 40.5295C-0.904391 35.4627 -1.28072 24.8429 5.26571 19.2901C5.68961 18.9306 6.12695 18.587 6.55791 18.2363L6.76553 17.99L6.7436 18.0009C10.0451 16.2127 13.5222 15.4394 17.2618 16.1798C20.4676 16.9931 23.1608 18.5884 25.0069 21.0326L18.917 27.1067C18.7315 26.8681 18.4468 26.4371 18.0995 26.0647C15.3618 23.1303 10.4996 24.265 9.32818 28.1037C8.56386 30.6082 9.51723 32.7524 12.1489 34.4475L6.01659 40.5295Z" fill="#FABC07"/>
<path d="M17.2612 16.1794C13.522 15.4391 10.0447 16.2124 6.74316 18.0007C7.18598 15.434 8.52416 13.3071 10.1055 11.3239C16.7994 2.92895 29.8967 1.89334 37.4469 9.14202L31.425 15.0752C30.918 14.7563 30.4226 14.4169 29.902 14.1223C25.7499 11.7722 20.2309 12.6741 17.2612 16.1794Z" fill="#E94436"/>
<path d="M6.0166 40.5301C8.06075 38.5028 10.1047 36.4754 12.149 34.4482C13.1744 34.7881 14.228 34.8682 15.3038 34.8638C18.4649 34.8509 21.6263 34.8709 24.7876 34.8782C24.7916 37.6907 24.7957 40.503 24.8001 43.3154C20.2466 43.3333 15.6769 43.711 11.1515 42.9695C9.24313 42.6568 7.52155 41.779 6.0166 40.5301Z" fill="#35A853"/>
<path d="M66.622 24.9576C69.0674 24.9576 71.4272 24.8375 73.7697 24.9884C76.6045 25.171 78.7806 27.5194 78.8547 30.1957C78.9392 33.2551 77.0611 35.6257 74.0401 36.0197C72.6145 36.2056 71.1446 36.0516 69.4677 36.0516V43.1743H66.622V24.9576ZM69.4874 33.4109C70.5631 33.4109 71.5022 33.4113 72.4412 33.4106C72.698 33.4104 72.9564 33.4253 73.211 33.4019C74.6587 33.2688 75.7415 32.2995 75.9617 30.9519C76.1656 29.7039 75.3857 28.2807 74.1416 27.8879C72.6147 27.4057 71.0509 27.6722 69.4872 27.6688L69.4874 33.4109ZM91.2111 43.2033H88.6027L88.3669 41.8155C87.0021 43.2048 85.5273 43.8815 83.671 43.5461C81.4627 43.1471 79.9249 41.5769 79.8427 39.5191C79.7576 37.3887 81.0664 35.8222 83.3502 35.2584C85.0311 34.8434 86.6604 35.097 88.3432 35.6201C88.6173 34.3431 87.9837 33.5998 87.0496 33.0751C85.6152 32.2694 84.0707 32.6441 82.3496 34.1724L80.3976 32.903C80.3051 32.4054 80.6341 32.2119 80.8668 31.9861C82.941 29.9724 87.1658 29.6993 89.4568 31.4411C90.4988 32.2333 91.1577 33.316 91.1899 34.6115C91.2596 37.4322 91.2111 40.2557 91.2111 43.2033ZM85.1296 41.2206C86.4662 41.2082 87.7215 40.3422 88.2426 39.1193C88.5708 38.3491 88.4867 37.8446 87.5849 37.5684C86.6622 37.2858 85.739 37.1995 84.801 37.3371C83.5679 37.518 82.6747 38.4388 82.7222 39.4097C82.7733 40.4545 83.8082 41.2329 85.1296 41.2206ZM136.629 39.0056L138.948 40.2021C137.267 43.3018 133.676 44.4915 130.481 43.0893C127.382 41.7297 125.903 38.0726 127.055 34.6181C128.104 31.4699 131.342 29.6951 134.658 30.4495C137.686 31.1381 139.569 34.0787 139.103 37.5355H129.662C129.711 39.1529 130.465 40.2875 131.841 40.7707C133.861 41.4805 135.442 40.7961 136.629 39.0056ZM136.23 35.3366C135.98 33.7148 134.888 32.8074 133.197 32.7356C131.507 32.6639 130.228 33.641 129.878 35.3366H136.23ZM116.064 43.1819H113.274V30.7487H115.863L115.976 32.3189C117.12 31.1056 118.359 30.3024 120.016 30.3117C122.848 30.3277 124.637 31.9562 124.706 34.8092C124.773 37.5494 124.721 40.2927 124.721 43.078C123.824 43.4067 122.937 43.1533 121.885 43.2746C121.885 40.6596 121.887 38.1477 121.884 35.6358C121.883 34.5291 121.565 33.598 120.421 33.1729C119.181 32.7119 118.06 32.8924 117.119 33.8594C116.529 34.4649 116.188 35.208 116.162 36.0484C116.105 37.8457 116.092 39.6443 116.065 41.4425C116.057 41.993 116.064 42.5439 116.064 43.1819ZM78.2619 8.44103H73.5714C73.3316 7.83693 73.3488 7.34883 73.5336 6.79231H79.9071C80.751 9.55745 79.1461 12.7143 76.3091 13.9094C72.8628 15.3611 68.8783 14.0228 67.0598 10.8026C65.2721 7.63692 66.1673 3.52776 69.1148 1.36902C71.9492 -0.706784 75.9963 -0.391293 78.2569 2.10681C78.0405 2.57403 77.6226 2.86088 77.1543 3.25648C75.8985 2.01927 74.3547 1.57628 72.6122 1.77735C71.4597 1.91034 70.4846 2.42124 69.6478 3.19281C67.9333 4.7738 67.4772 7.88061 68.6292 9.97038C69.8188 12.1282 72.2718 13.1693 74.7938 12.5863C76.8816 12.1038 78.1708 10.6047 78.2619 8.44103ZM111.383 30.6405V33.1646H108.39C108.39 35.3599 108.314 37.4057 108.418 39.442C108.485 40.7491 109.196 41.0651 110.981 40.7756L111.803 43.1086C108.177 44.6206 105.495 42.8811 105.487 39.096C105.483 37.1768 105.486 35.2579 105.486 33.259L103.413 33.1644C103.231 32.364 103.295 31.5806 103.37 30.7139L105.47 30.6189V26.8629H108.209C108.547 28.0715 108.15 29.3299 108.467 30.6401C109.406 30.6405 110.332 30.6405 111.383 30.6405ZM110.836 5.73495C110.78 4.2461 111.711 4.71721 112.497 4.69882C112.497 8.12059 112.63 11.4967 112.446 14.8557C112.337 16.8602 110.7 18.2253 108.714 18.5422C106.327 18.9233 104.802 18.1871 103.573 16.0377C103.863 15.49 104.485 15.5139 104.941 15.2589C106.371 16.9777 107.604 17.4046 109.152 16.7283C110.43 16.1695 110.986 14.9501 110.749 13.2199C107.898 14.9335 105.889 14.8175 104.265 12.8453C102.588 10.8077 102.668 7.66733 104.445 5.76944C106.118 3.98437 108.22 3.93043 110.836 5.73495ZM110.87 9.32896C110.842 7.41586 109.562 5.98448 107.877 5.98201C106.153 5.97935 104.843 7.48094 104.857 9.4432C104.871 11.4049 106.206 12.886 107.928 12.8482C109.671 12.81 110.9 11.3404 110.87 9.32896ZM178.761 5.72187V0.445358C179.354 0.205203 179.881 0.25578 180.477 0.395841V13.9862C179.044 14.2737 179.044 14.2737 178.694 13.0782C177.535 14.2414 176.161 14.6822 174.609 14.3593C173.565 14.1423 172.742 13.5357 172.096 12.6874C170.535 10.6348 170.696 7.53417 172.462 5.71338C174.138 3.98437 176.304 3.93786 178.761 5.72187ZM178.839 9.38184C178.835 7.46856 177.586 6.02975 175.893 5.98908C174.169 5.9477 172.827 7.43354 172.82 9.39033C172.813 11.3577 174.117 12.8537 175.838 12.8514C177.576 12.8489 178.844 11.3837 178.839 9.38184ZM143.753 10.896L144.931 11.9334C142.472 15.0211 137.646 15.3364 134.678 12.6602C131.644 9.92581 131.516 4.93915 134.405 2.06472C137.244 -0.760722 141.935 -0.688215 144.573 2.33512L143.244 3.27735C142.052 1.96976 140.384 1.52499 138.507 1.80865C137.225 2.00247 136.179 2.65008 135.36 3.6374C133.624 5.72753 133.779 9.28758 135.669 11.1915C137.788 13.3279 140.821 13.222 143.753 10.896ZM141.079 30.7206H143.575C143.867 31.2453 143.635 31.7774 143.805 32.3971C145.303 30.6971 147.01 29.7404 149.352 30.7132L148.584 33.2079C147.415 33.1011 146.305 32.9025 145.323 33.6709C144.157 34.5831 143.87 35.8295 143.868 37.2043C143.865 39.1658 143.867 41.1275 143.867 43.163C142.89 43.2907 142.019 43.2714 141.079 43.1696V30.7206ZM127.202 9.75622H119.933C119.937 11.2585 120.563 12.1912 121.824 12.6483C123.178 13.1387 124.3 12.744 125.421 11.3574C125.936 11.3275 126.343 11.6513 126.804 11.8119C126.145 13.876 123.943 14.9043 121.564 14.3231C119.13 13.7281 117.594 11.1849 118.059 8.51742C118.532 5.80322 120.641 4.12231 123.23 4.39624C125.804 4.66893 127.348 6.68708 127.202 9.75622ZM125.202 8.20388C125.014 6.76719 124.126 5.98749 122.721 5.96927C121.364 5.95159 120.309 6.85579 120.129 8.20388H125.202ZM96.8323 43.2668C95.8535 43.4375 94.9792 43.4375 94.0631 43.2702V30.9015H96.5929L96.709 32.5902C97.5696 31.5081 98.5251 30.7372 99.8351 30.4976C101.474 30.198 101.724 30.3733 101.723 31.9921C101.723 32.3734 101.723 32.7547 101.723 33.0344C101.554 33.3252 101.381 33.2705 101.214 33.2574C98.2734 33.0284 96.8629 34.2934 96.8357 37.2145C96.8173 39.2178 96.8323 41.2213 96.8323 43.2668ZM86.0287 14.4534C83.2383 14.4384 81.1736 12.2973 81.1727 9.41739C81.1718 6.49415 83.3125 4.32497 86.1576 4.36618C88.9183 4.40614 90.9837 6.6121 90.9476 9.48246C90.9114 12.3654 88.8303 14.4684 86.0287 14.4534ZM89.1477 9.39298C89.142 7.48837 87.7409 5.94646 86.0354 5.96803C84.3206 5.98979 82.9608 7.53399 82.9746 9.44444C82.9886 11.3662 84.3641 12.8742 86.0867 12.8556C87.8145 12.8367 89.1535 11.3218 89.1477 9.39298ZM96.851 14.4534C94.058 14.443 91.9917 12.3088 91.9854 9.42747C91.979 6.50352 94.1147 4.33045 96.96 4.36618C99.7218 4.40084 101.791 6.60185 101.76 9.47238C101.729 12.3549 99.6508 14.4638 96.851 14.4534ZM99.9598 9.34983C99.9377 7.4507 98.5017 5.91144 96.8047 5.96786C95.0817 6.02516 93.757 7.57025 93.7874 9.48742C93.8176 11.4039 95.2227 12.9037 96.9425 12.8552C98.6695 12.8068 99.9823 11.2817 99.9598 9.34983ZM154.847 14.4534C152.041 14.476 149.957 12.3838 149.911 9.4998C149.864 6.57496 151.971 4.36777 154.811 4.36653C157.581 4.36529 159.677 6.52987 159.686 9.40023C159.694 12.2782 157.633 14.4311 154.847 14.4534ZM157.883 9.40678C157.883 7.50092 156.493 5.95795 154.785 5.96786C153.072 5.97794 151.701 7.52161 151.71 9.43047C151.719 11.3554 153.084 12.8639 154.808 12.8554C156.535 12.8468 157.884 11.3344 157.883 9.40678ZM161.271 4.72818H162.994C162.994 6.48831 162.983 8.19097 162.996 9.89345C163.012 11.9318 163.699 12.825 165.24 12.8517C166.678 12.8766 167.744 11.658 167.778 9.87223C167.811 8.16745 167.785 6.46178 167.785 4.78353C168.44 4.62101 168.945 4.63197 169.531 4.75541V14.0603C168.8 14.1248 167.972 14.5811 167.713 13.2057C166.867 13.7764 166.1 14.3894 165.073 14.449C163.01 14.5687 161.451 13.4698 161.306 11.4373C161.15 9.23064 161.271 7.00452 161.271 4.72818ZM116.376 14.07C115.805 14.181 115.31 14.2086 114.748 14.039V0.451194C115.258 0.153388 115.788 0.346325 116.376 0.302998V14.07ZM148.26 14.0898H146.67C146.643 13.8302 146.604 13.6258 146.604 13.4213C146.6 9.11021 146.601 4.79927 146.601 0.523346C147.148 0.144191 147.663 0.331647 148.261 0.319975L148.26 14.0898Z" fill="#62666A"/>
<path d="M6.76599 17.9902L6.55762 18.2375C6.56862 18.1056 6.56383 17.9606 6.76599 17.9902Z" fill="#E94436"/>
</svg>
